<?xml version="1.0" encoding="UTF-8" standalone="no"?>
<svg viewBox="0 0 200 400" xmlns="http://www.w3.org/2000/svg">
  <!-- Female Mesomorph Body Type -->
  
  <!-- Head -->
  <circle cx="100" cy="40" r="28" fill="#555555" />
  
  <!-- Neck -->
  <rect x="92" y="68" width="16" height="12" fill="#555555" />
  
  <!-- Shoulders - athletic -->
  <rect x="65" y="80" width="70" height="15" rx="7" fill="#555555" />
  
  <!-- Arms - toned -->
  <path d="M65,85 C60,120 60,160 65,205" stroke="#555555" stroke-width="14" fill="none" />
  <path d="M135,85 C140,120 140,160 135,205" stroke="#555555" stroke-width="14" fill="none" />
  
  <!-- Hands -->
  <circle cx="65" cy="215" r="7" fill="#555555" />
  <circle cx="135" cy="215" r="7" fill="#555555" />
  
  <!-- Torso - hourglass shape -->
  <path d="M75,80 C65,120 75,150 85,210 Q100,220 115,210 C125,150 135,120 125,80 Z" fill="#555555" />
  
  <!-- Bust - moderate -->
  <path d="M85,110 C100,125 100,125 115,110" stroke="#444444" stroke-width="1.5" fill="none" />
  
  <!-- Waist - defined -->
  <rect x="85" y="210" width="30" height="12" rx="6" fill="#555555" />
  
  <!-- Hip - moderate -->
  <path d="M80,222 C70,235 70,250 80,270" stroke="#555555" stroke-width="14" fill="none" />
  <path d="M120,222 C130,235 130,250 120,270" stroke="#555555" stroke-width="14" fill="none" />
  
  <!-- Legs - toned -->
  <rect x="83" y="235" width="15" height="145" rx="7" fill="#555555" />
  <rect x="102" y="235" width="15" height="145" rx="7" fill="#555555" />
  
  <!-- Feet -->
  <ellipse cx="90" cy="385" rx="12" ry="5" fill="#555555" />
  <ellipse cx="110" cy="385" rx="12" ry="5" fill="#555555" />
</svg>