<?xml version="1.0" encoding="UTF-8" standalone="no"?>
<svg viewBox="0 0 200 400" xmlns="http://www.w3.org/2000/svg">
  <!-- Female Ectomorph Body Type -->
  
  <!-- Head -->
  <circle cx="100" cy="40" r="28" fill="#555555" />
  
  <!-- Neck -->
  <rect x="92" y="68" width="16" height="12" fill="#555555" />
  
  <!-- Shoulders - narrow for ectomorph -->
  <rect x="70" y="80" width="60" height="12" rx="6" fill="#555555" />
  
  <!-- Arms - thin -->
  <rect x="60" y="80" width="10" height="120" rx="5" fill="#555555" />
  <rect x="130" y="80" width="10" height="120" rx="5" fill="#555555" />
  
  <!-- Hands -->
  <circle cx="65" cy="210" r="7" fill="#555555" />
  <circle cx="135" cy="210" r="7" fill="#555555" />
  
  <!-- Torso - narrow, straight with subtle curves -->
  <path d="M75,80 C70,110 70,140 75,210 Q100,220 125,210 C130,140 130,110 125,80 Z" fill="#555555" />
  
  <!-- Bust - subtle -->
  <path d="M85,110 C100,118 100,118 115,110" stroke="#444444" stroke-width="1" fill="none" />
  
  <!-- Waist - thin -->
  <rect x="85" y="210" width="30" height="10" rx="5" fill="#555555" />
  
  <!-- Hip - subtle -->
  <path d="M85,220 C80,235 80,235 85,250" stroke="#555555" stroke-width="12" fill="none" />
  <path d="M115,220 C120,235 120,235 115,250" stroke="#555555" stroke-width="12" fill="none" />
  
  <!-- Legs - thin and long -->
  <rect x="85" y="230" width="12" height="150" rx="6" fill="#555555" />
  <rect x="103" y="230" width="12" height="150" rx="6" fill="#555555" />
  
  <!-- Feet -->
  <ellipse cx="91" cy="385" rx="12" ry="5" fill="#555555" />
  <ellipse cx="109" cy="385" rx="12" ry="5" fill="#555555" />
</svg>