<?xml version="1.0" encoding="UTF-8" standalone="no"?>
<svg viewBox="0 0 200 400" xmlns="http://www.w3.org/2000/svg">
  <!-- Female Endomorph Body Type -->
  
  <!-- Head -->
  <circle cx="100" cy="40" r="28" fill="#555555" />
  
  <!-- Neck -->
  <rect x="90" y="68" width="20" height="12" fill="#555555" />
  
  <!-- Shoulders - softer -->
  <rect x="65" y="80" width="70" height="15" rx="7" fill="#555555" />
  
  <!-- Arms - fuller -->
  <path d="M65,85 C55,120 55,160 65,205" stroke="#555555" stroke-width="20" fill="none" />
  <path d="M135,85 C145,120 145,160 135,205" stroke="#555555" stroke-width="20" fill="none" />
  
  <!-- Hands -->
  <circle cx="65" cy="215" r="8" fill="#555555" />
  <circle cx="135" cy="215" r="8" fill="#555555" />
  
  <!-- Torso - fuller, rounded hourglass -->
  <path d="M75,80 C55,120 65,150 80,210 Q100,225 120,210 C135,150 145,120 125,80 Z" fill="#555555" />
  
  <!-- Bust - fuller -->
  <path d="M85,105 C100,130 100,130 115,105" stroke="#444444" stroke-width="2" fill="none" />
  
  <!-- Waist - wider -->
  <rect x="80" y="210" width="40" height="15" rx="7" fill="#555555" />
  
  <!-- Hip - fuller, wider -->
  <path d="M75,225 C60,245 60,265 75,285" stroke="#555555" stroke-width="22" fill="none" />
  <path d="M125,225 C140,245 140,265 125,285" stroke="#555555" stroke-width="22" fill="none" />
  
  <!-- Legs - fuller -->
  <rect x="80" y="235" width="18" height="145" rx="9" fill="#555555" />
  <rect x="102" y="235" width="18" height="145" rx="9" fill="#555555" />
  
  <!-- Feet -->
  <ellipse cx="89" cy="385" rx="14" ry="6" fill="#555555" />
  <ellipse cx="111" cy="385" rx="14" ry="6" fill="#555555" />
</svg>