<?xml version="1.0" encoding="UTF-8" standalone="no"?>
<svg viewBox="0 0 200 400" xmlns="http://www.w3.org/2000/svg">
  <!-- Male Endomorph Body Type -->
  
  <!-- Head -->
  <circle cx="100" cy="40" r="30" fill="#555555" />
  
  <!-- Neck -->
  <rect x="85" y="70" width="30" height="15" fill="#555555" />
  
  <!-- Shoulders - wider -->
  <rect x="50" y="85" width="100" height="20" rx="10" fill="#555555" />
  
  <!-- Arms - fuller -->
  <path d="M50,90 C35,130 35,170 50,210" stroke="#555555" stroke-width="25" fill="none" />
  <path d="M150,90 C165,130 165,170 150,210" stroke="#555555" stroke-width="25" fill="none" />
  
  <!-- Hands -->
  <circle cx="50" cy="220" r="12" fill="#555555" />
  <circle cx="150" cy="220" r="12" fill="#555555" />
  
  <!-- Torso - wider, rounded -->
  <path d="M60,85 Q40,150 65,220 Q100,240 135,220 Q160,150 140,85 Z" fill="#555555" />
  
  <!-- Waist - wider -->
  <rect x="70" y="220" width="60" height="20" rx="10" fill="#555555" />
  
  <!-- Legs - fuller -->
  <rect x="70" y="240" width="25" height="140" rx="12" fill="#555555" />
  <rect x="105" y="240" width="25" height="140" rx="12" fill="#555555" />
  
  <!-- Feet -->
  <ellipse cx="82" cy="385" rx="18" ry="8" fill="#555555" />
  <ellipse cx="118" cy="385" rx="18" ry="8" fill="#555555" />
</svg>