<?xml version="1.0" encoding="UTF-8" standalone="no"?>
<svg width="1080" height="1080" viewBox="0 0 1080 1080" xmlns="http://www.w3.org/2000/svg">
  <defs>
    <!-- Gradients -->
    <linearGradient id="bgGradient" x1="0%" y1="0%" x2="100%" y2="100%">
      <stop offset="0%" stop-color="#4a00e0" />
      <stop offset="100%" stop-color="#8e2de2" />
    </linearGradient>
    <linearGradient id="buttonGradient" x1="0%" y1="0%" x2="100%" y2="100%">
      <stop offset="0%" stop-color="#00c6ff" />
      <stop offset="100%" stop-color="#0072ff" />
    </linearGradient>
    <filter id="shadow" x="-20%" y="-20%" width="140%" height="140%">
      <feGaussianBlur in="SourceAlpha" stdDeviation="8" />
      <feOffset dx="0" dy="8" result="offsetblur" />
      <feComponentTransfer>
        <feFuncA type="linear" slope="0.3" />
      </feComponentTransfer>
      <feMerge>
        <feMergeNode />
        <feMergeNode in="SourceGraphic" />
      </feMerge>
    </filter>
  </defs>

  <!-- Background -->
  <rect width="1080" height="1080" fill="url(#bgGradient)" />
  
  <!-- Decorative elements -->
  <circle cx="200" cy="150" r="60" fill="#ffffff" fill-opacity="0.1" />
  <circle cx="950" cy="900" r="100" fill="#ffffff" fill-opacity="0.1" />
  <circle cx="150" cy="800" r="80" fill="#ffffff" fill-opacity="0.05" />
  
  <!-- Phone mockup -->
  <rect x="580" y="240" width="320" height="650" rx="30" fill="#232323" filter="url(#shadow)" />
  <rect x="590" y="250" width="300" height="630" rx="20" fill="#ffffff" />
  <rect x="730" y="260" width="20" height="5" rx="2" fill="#333" />
  <circle cx="740" cy="860" r="20" fill="#f0f0f0" stroke="#ddd" />
  
  <!-- Shopping list UI on the phone -->
  <rect x="610" y="280" width="260" height="60" rx="5" fill="#4a00e0" />
  <text x="640" y="322" font-family="Arial, sans-serif" font-size="20" font-weight="bold" fill="#ffffff">Shopping List</text>
  
  <!-- List items -->
  <rect x="610" y="360" width="260" height="60" rx="10" fill="#f8f9fa" stroke="#e0e0e0" />
  <circle cx="635" cy="390" r="15" fill="#4a00e0" fill-opacity="0.1" stroke="#4a00e0" stroke-width="2" />
  <path d="M632,390 L638,396 L643,385" stroke="#4a00e0" stroke-width="2" fill="none" />
  <text x="660" y="385" font-family="Arial, sans-serif" font-size="16" font-weight="bold" fill="#333333">Chicken Breast</text>
  <text x="660" y="405" font-family="Arial, sans-serif" font-size="12" fill="#666666">500g (high protein)</text>
  
  <rect x="610" y="430" width="260" height="60" rx="10" fill="#f8f9fa" stroke="#e0e0e0" />
  <circle cx="635" cy="460" r="15" fill="#4a00e0" fill-opacity="0.1" stroke="#4a00e0" stroke-width="2" />
  <path d="M632,460 L638,466 L643,455" stroke="#4a00e0" stroke-width="2" fill="none" />
  <text x="660" y="455" font-family="Arial, sans-serif" font-size="16" font-weight="bold" fill="#333333">Brown Rice</text>
  <text x="660" y="475" font-family="Arial, sans-serif" font-size="12" fill="#666666">2 cups (35g protein)</text>
  
  <rect x="610" y="500" width="260" height="60" rx="10" fill="#f8f9fa" stroke="#e0e0e0" />
  <circle cx="635" cy="530" r="15" fill="#4a00e0" fill-opacity="0.1" stroke="#4a00e0" stroke-width="2" />
  <path d="M632,530 L638,536 L643,525" stroke="#4a00e0" stroke-width="2" fill="none" />
  <text x="660" y="525" font-family="Arial, sans-serif" font-size="16" font-weight="bold" fill="#333333">Broccoli</text>
  <text x="660" y="545" font-family="Arial, sans-serif" font-size="12" fill="#666666">3 cups (high fiber)</text>
  
  <rect x="610" y="570" width="260" height="60" rx="10" fill="#f8f9fa" stroke="#e0e0e0" />
  <circle cx="635" cy="600" r="15" fill="#ffffff" stroke="#cccccc" stroke-width="2" />
  <text x="660" y="595" font-family="Arial, sans-serif" font-size="16" font-weight="bold" fill="#333333">Greek Yogurt</text>
  <text x="660" y="615" font-family="Arial, sans-serif" font-size="12" fill="#666666">500g (for smoothies)</text>
  
  <rect x="610" y="640" width="260" height="60" rx="10" fill="#f8f9fa" stroke="#e0e0e0" />
  <circle cx="635" cy="670" r="15" fill="#ffffff" stroke="#cccccc" stroke-width="2" />
  <text x="660" y="665" font-family="Arial, sans-serif" font-size="16" font-weight="bold" fill="#333333">Salmon</text>
  <text x="660" y="685" font-family="Arial, sans-serif" font-size="12" fill="#666666">1lb (omega-3 source)</text>
  
  <!-- Summary card -->
  <rect x="610" y="720" width="260" height="80" rx="10" fill="url(#buttonGradient)" />
  <text x="630" y="750" font-family="Arial, sans-serif" font-size="16" font-weight="bold" fill="#ffffff">Nutrition Summary</text>
  <text x="630" y="775" font-family="Arial, sans-serif" font-size="14" fill="#ffffff">Protein: 145g • Cost: $42.50</text>
  
  <!-- Marketing text section - LEFT SIDE -->
  <g>
    <text x="180" y="320" font-family="Arial, sans-serif" font-size="42" font-weight="bold" fill="#ffffff">AI-Powered</text>
    <text x="180" y="380" font-family="Arial, sans-serif" font-size="48" font-weight="bold" fill="#ffffff">Shopping Lists</text>
    
    <text x="180" y="430" font-family="Arial, sans-serif" font-size="20" fill="#ffffff" fill-opacity="0.9">From meal plan to shopping cart -</text>
    <text x="180" y="465" font-family="Arial, sans-serif" font-size="20" fill="#ffffff" fill-opacity="0.9">perfect nutrition made easy!</text>
  </g>
  
  <!-- Feature boxes -->
  <g>
    <rect x="180" y="520" width="300" height="80" rx="10" fill="#ffffff" fill-opacity="0.15" />
    <text x="210" y="555" font-family="Arial, sans-serif" font-size="18" font-weight="bold" fill="#ffffff">Auto-Generated</text>
    <text x="210" y="580" font-family="Arial, sans-serif" font-size="16" fill="#ffffff" fill-opacity="0.9">Based on your meal plans</text>
    
    <rect x="180" y="620" width="300" height="80" rx="10" fill="#ffffff" fill-opacity="0.15" />
    <text x="210" y="655" font-family="Arial, sans-serif" font-size="18" font-weight="bold" fill="#ffffff">Nutrition Tracking</text>
    <text x="210" y="680" font-family="Arial, sans-serif" font-size="16" fill="#ffffff" fill-opacity="0.9">Macro goals integrated</text>
    
    <rect x="180" y="720" width="300" height="80" rx="10" fill="#ffffff" fill-opacity="0.15" />
    <text x="210" y="755" font-family="Arial, sans-serif" font-size="18" font-weight="bold" fill="#ffffff">Budget Friendly</text>
    <text x="210" y="780" font-family="Arial, sans-serif" font-size="16" fill="#ffffff" fill-opacity="0.9">With cost estimation</text>
  </g>
  
  <!-- Logo and branding -->
  <text x="540" y="950" font-family="Arial, sans-serif" font-size="22" font-weight="bold" fill="#ffffff" text-anchor="middle">TrackMadeEazE</text>
  <text x="540" y="980" font-family="Arial, sans-serif" font-size="16" fill="#ffffff" fill-opacity="0.8" text-anchor="middle">Fitness & Nutrition Made Simple</text>
</svg>