<?xml version="1.0" encoding="UTF-8"?>
<svg width="512" height="512" viewBox="0 0 512 512" fill="none" xmlns="http://www.w3.org/2000/svg">
  <!-- Background -->
  <rect width="512" height="512" rx="128" fill="#4f46e5"/>
  
  <!-- Gradient overlay -->
  <rect width="512" height="512" rx="128" fill="url(#paint0_linear)" fill-opacity="0.3"/>
  
  <!-- Fitness elements -->
  <!-- Heart rate monitor line -->
  <path d="M96 256 L160 256 L176 220 L208 300 L240 180 L272 340 L304 256 L352 256 L368 220 L416 256" 
        stroke="white" stroke-width="16" stroke-linecap="round" stroke-linejoin="round"/>
  
  <!-- Stopwatch icon -->
  <circle cx="256" cy="180" r="48" stroke="white" stroke-width="12" fill="none"/>
  <path d="M256 150 L256 180 L280 196" stroke="white" stroke-width="12" stroke-linecap="round" stroke-linejoin="round"/>
  <path d="M256 132 L256 120" stroke="white" stroke-width="12" stroke-linecap="round"/>
  <path d="M236 120 L276 120" stroke="white" stroke-width="12" stroke-linecap="round"/>
  
  <!-- Dumbbell -->
  <rect x="180" y="350" width="152" height="24" rx="12" fill="white"/>
  <circle cx="160" cy="362" r="20" fill="white"/>
  <circle cx="352" cy="362" r="20" fill="white"/>
  <rect x="140" y="344" width="20" height="36" rx="8" fill="white"/>
  <rect x="352" y="344" width="20" height="36" rx="8" fill="white"/>
  
  <!-- App name -->
  <text x="256" y="440" font-family="Arial, sans-serif" font-size="24" font-weight="bold" fill="white" text-anchor="middle">TrackMadeEazE</text>
  
  <!-- Gradients -->
  <defs>
    <linearGradient id="paint0_linear" x1="0" y1="0" x2="512" y2="512" gradientUnits="userSpaceOnUse">
      <stop stop-color="#6366f1"/>
      <stop offset="1" stop-color="#4338ca"/>
    </linearGradient>
  </defs>
</svg>