<?xml version="1.0" encoding="UTF-8" standalone="no"?>
<svg xmlns="http://www.w3.org/2000/svg" width="1024" height="1024" viewBox="0 0 1024 1024">
  <rect width="1024" height="1024" fill="#1e3a8a" />
  <g transform="translate(150, 150) scale(0.7)">
    <circle cx="512" cy="512" r="420" fill="#ffffff" opacity="0.9" />
    <circle cx="512" cy="512" r="360" fill="#1e3a8a" opacity="0.9" />
    <path d="M400 350 L624 350 L624 400 L480 400 L480 500 L600 500 L600 550 L480 550 L480 674 L400 674 Z" fill="#ffffff" />
    <path d="M720 450 C720 498.513 701.046 550 650 550 C600 550 580 500 580 450 C580 401.487 600 350 650 350 C701.046 350 720 401.487 720 450 Z" fill="#ffffff" />
    <path d="M650 550 L650 674 L720 674 L720 550 Z" fill="#ffffff" />
  </g>
  <text x="512" y="900" font-family="Arial, sans-serif" font-size="70" font-weight="bold" fill="#ffffff" text-anchor="middle">TrackEazE</text>
</svg>